<svg xmlns="http://www.w3.org/2000/svg" xmlns:xlink="http://www.w3.org/1999/xlink" width="2000" zoomAndPan="magnify" viewBox="0 0 1500 1499.999933" height="2000" preserveAspectRatio="xMidYMid meet" version="1.0"><defs><g/><clipPath id="3caf4c7114"><path d="M 363.363281 783.480469 L 443.773438 783.480469 L 443.773438 847.609375 L 363.363281 847.609375 Z M 363.363281 783.480469 " clip-rule="nonzero"/></clipPath><clipPath id="f9ba3a378b"><path d="M 407.316406 783.480469 L 363.363281 783.480469 L 399.6875 847.609375 L 443.644531 847.609375 Z M 407.316406 783.480469 " clip-rule="nonzero"/></clipPath><clipPath id="f79a5bdbb9"><path d="M 0.363281 0.480469 L 80.761719 0.480469 L 80.761719 64.609375 L 0.363281 64.609375 Z M 0.363281 0.480469 " clip-rule="nonzero"/></clipPath><clipPath id="c1f60a4164"><path d="M 44.316406 0.480469 L 0.363281 0.480469 L 36.6875 64.609375 L 80.644531 64.609375 Z M 44.316406 0.480469 " clip-rule="nonzero"/></clipPath><clipPath id="768c513def"><rect x="0" width="81" y="0" height="65"/></clipPath><clipPath id="e7f7e1bc77"><path d="M 291.585938 619.75 L 372 619.75 L 372 683.878906 L 291.585938 683.878906 Z M 291.585938 619.75 " clip-rule="nonzero"/></clipPath><clipPath id="fc8b3b479a"><path d="M 328.042969 683.878906 L 372 683.878906 L 335.671875 619.75 L 291.714844 619.75 Z M 328.042969 683.878906 " clip-rule="nonzero"/></clipPath><clipPath id="7d1d07efdb"><path d="M 0.601562 0.75 L 81 0.75 L 81 64.878906 L 0.601562 64.878906 Z M 0.601562 0.75 " clip-rule="nonzero"/></clipPath><clipPath id="63299daf2e"><path d="M 37.042969 64.878906 L 81 64.878906 L 44.671875 0.75 L 0.714844 0.75 Z M 37.042969 64.878906 " clip-rule="nonzero"/></clipPath><clipPath id="7df8e8f48f"><rect x="0" width="81" y="0" height="65"/></clipPath><clipPath id="31f47eb5c4"><path d="M 295.558594 744.433594 L 384 744.433594 L 384 824.519531 L 295.558594 824.519531 Z M 295.558594 744.433594 " clip-rule="nonzero"/></clipPath><clipPath id="803e4067f4"><path d="M 339.730469 744.433594 L 383.902344 744.433594 L 339.730469 824.519531 L 295.558594 824.519531 Z M 339.730469 744.433594 " clip-rule="nonzero"/></clipPath><clipPath id="f22046e89f"><path d="M 0.558594 0.433594 L 89 0.433594 L 89 80.519531 L 0.558594 80.519531 Z M 0.558594 0.433594 " clip-rule="nonzero"/></clipPath><clipPath id="826d05dcad"><path d="M 44.730469 0.433594 L 88.902344 0.433594 L 44.730469 80.519531 L 0.558594 80.519531 Z M 44.730469 0.433594 " clip-rule="nonzero"/></clipPath><clipPath id="b7b3a86a53"><rect x="0" width="89" y="0" height="81"/></clipPath><clipPath id="eb43053e34"><path d="M 351.273438 642.839844 L 439.804688 642.839844 L 439.804688 722.929688 L 351.273438 722.929688 Z M 351.273438 642.839844 " clip-rule="nonzero"/></clipPath><clipPath id="6838793186"><path d="M 395.632812 722.929688 L 351.464844 722.929688 L 395.632812 642.839844 L 439.804688 642.839844 Z M 395.632812 722.929688 " clip-rule="nonzero"/></clipPath><clipPath id="df0ad64166"><path d="M 0.359375 0.839844 L 88.804688 0.839844 L 88.804688 80.929688 L 0.359375 80.929688 Z M 0.359375 0.839844 " clip-rule="nonzero"/></clipPath><clipPath id="73bdc7953f"><path d="M 44.632812 80.929688 L 0.464844 80.929688 L 44.632812 0.839844 L 88.804688 0.839844 Z M 44.632812 80.929688 " clip-rule="nonzero"/></clipPath><clipPath id="410098e105"><rect x="0" width="89" y="0" height="81"/></clipPath><clipPath id="72bedb95ce"><path d="M 407.183594 703.390625 L 495.71875 703.390625 L 495.71875 783.480469 L 407.183594 783.480469 Z M 407.183594 703.390625 " clip-rule="nonzero"/></clipPath><clipPath id="192e05e722"><path d="M 451.546875 783.480469 L 407.375 783.480469 L 451.546875 703.390625 L 495.71875 703.390625 Z M 451.546875 783.480469 " clip-rule="nonzero"/></clipPath><clipPath id="e02e66a6f5"><path d="M 0.28125 0.390625 L 88.71875 0.390625 L 88.71875 80.480469 L 0.28125 80.480469 Z M 0.28125 0.390625 " clip-rule="nonzero"/></clipPath><clipPath id="67aa0f603d"><path d="M 44.546875 80.480469 L 0.375 80.480469 L 44.546875 0.390625 L 88.71875 0.390625 Z M 44.546875 80.480469 " clip-rule="nonzero"/></clipPath><clipPath id="23fd0eae72"><rect x="0" width="89" y="0" height="81"/></clipPath><clipPath id="6526b765e4"><path d="M 239.644531 683.882812 L 328 683.882812 L 328 763.96875 L 239.644531 763.96875 Z M 239.644531 683.882812 " clip-rule="nonzero"/></clipPath><clipPath id="328881b234"><path d="M 283.816406 683.882812 L 327.988281 683.882812 L 283.816406 763.96875 L 239.644531 763.96875 Z M 283.816406 683.882812 " clip-rule="nonzero"/></clipPath><clipPath id="c4fb724904"><path d="M 0.644531 0.882812 L 89 0.882812 L 89 80.96875 L 0.644531 80.96875 Z M 0.644531 0.882812 " clip-rule="nonzero"/></clipPath><clipPath id="26217d543d"><path d="M 44.816406 0.882812 L 88.988281 0.882812 L 44.816406 80.96875 L 0.644531 80.96875 Z M 44.816406 0.882812 " clip-rule="nonzero"/></clipPath><clipPath id="08e289eba0"><rect x="0" width="89" y="0" height="81"/></clipPath><clipPath id="3d3937ec3d"><path d="M 6 0.558594 L 141 0.558594 L 141 140 L 6 140 Z M 6 0.558594 " clip-rule="nonzero"/></clipPath><clipPath id="507a438532"><rect x="0" width="614" y="0" height="189"/></clipPath></defs><g clip-path="url(#3caf4c7114)"><g clip-path="url(#f9ba3a378b)"><g transform="matrix(1, 0, 0, 1, 363, 783)"><g clip-path="url(#768c513def)"><g clip-path="url(#f79a5bdbb9)"><g clip-path="url(#c1f60a4164)"><path fill="#ffffff" d="M 0.363281 0.480469 L 80.523438 0.480469 L 80.523438 64.609375 L 0.363281 64.609375 Z M 0.363281 0.480469 " fill-opacity="1" fill-rule="nonzero"/></g></g></g></g></g></g><g clip-path="url(#e7f7e1bc77)"><g clip-path="url(#fc8b3b479a)"><g transform="matrix(1, 0, 0, 1, 291, 619)"><g clip-path="url(#7df8e8f48f)"><g clip-path="url(#7d1d07efdb)"><g clip-path="url(#63299daf2e)"><path fill="#ffffff" d="M 81 64.878906 L 0.835938 64.878906 L 0.835938 0.75 L 81 0.75 Z M 81 64.878906 " fill-opacity="1" fill-rule="nonzero"/></g></g></g></g></g></g><g clip-path="url(#31f47eb5c4)"><g clip-path="url(#803e4067f4)"><g transform="matrix(1, 0, 0, 1, 295, 744)"><g clip-path="url(#b7b3a86a53)"><g clip-path="url(#f22046e89f)"><g clip-path="url(#826d05dcad)"><path fill="#ffffff" d="M 0.558594 0.433594 L 88.777344 0.433594 L 88.777344 80.519531 L 0.558594 80.519531 Z M 0.558594 0.433594 " fill-opacity="1" fill-rule="nonzero"/></g></g></g></g></g></g><g clip-path="url(#eb43053e34)"><g clip-path="url(#6838793186)"><g transform="matrix(1, 0, 0, 1, 351, 642)"><g clip-path="url(#410098e105)"><g clip-path="url(#df0ad64166)"><g clip-path="url(#73bdc7953f)"><path fill="#ffffff" d="M 88.804688 80.929688 L 0.585938 80.929688 L 0.585938 0.839844 L 88.804688 0.839844 Z M 88.804688 80.929688 " fill-opacity="1" fill-rule="nonzero"/></g></g></g></g></g></g><g clip-path="url(#72bedb95ce)"><g clip-path="url(#192e05e722)"><g transform="matrix(1, 0, 0, 1, 407, 703)"><g clip-path="url(#23fd0eae72)"><g clip-path="url(#e02e66a6f5)"><g clip-path="url(#67aa0f603d)"><path fill="#ffffff" d="M 88.71875 80.480469 L 0.496094 80.480469 L 0.496094 0.390625 L 88.71875 0.390625 Z M 88.71875 80.480469 " fill-opacity="1" fill-rule="nonzero"/></g></g></g></g></g></g><g clip-path="url(#6526b765e4)"><g clip-path="url(#328881b234)"><g transform="matrix(1, 0, 0, 1, 239, 683)"><g clip-path="url(#08e289eba0)"><g clip-path="url(#c4fb724904)"><g clip-path="url(#26217d543d)"><path fill="#ffffff" d="M 0.644531 0.882812 L 88.867188 0.882812 L 88.867188 80.96875 L 0.644531 80.96875 Z M 0.644531 0.882812 " fill-opacity="1" fill-rule="nonzero"/></g></g></g></g></g></g><g transform="matrix(1, 0, 0, 1, 529, 580)"><g clip-path="url(#507a438532)"><g clip-path="url(#3d3937ec3d)"><g fill="#ffffff" fill-opacity="1"><g transform="translate(0.315769, 136.943253)"><g><path d="M 76.59375 2.828125 C 68.78125 2.828125 61.351562 1.671875 54.3125 -0.640625 C 47.28125 -2.953125 40.847656 -6.222656 35.015625 -10.453125 C 29.191406 -14.679688 24.144531 -19.691406 19.875 -25.484375 C 15.613281 -31.285156 12.3125 -37.671875 9.96875 -44.640625 C 7.625 -51.609375 6.453125 -58.9375 6.453125 -66.625 C 6.453125 -74.375 7.625 -81.71875 9.96875 -88.65625 C 12.3125 -95.59375 15.613281 -101.941406 19.875 -107.703125 C 24.144531 -113.472656 29.191406 -118.472656 35.015625 -122.703125 C 40.847656 -126.929688 47.28125 -130.203125 54.3125 -132.515625 C 61.351562 -134.828125 68.78125 -135.984375 76.59375 -135.984375 C 83.625 -135.984375 90.59375 -134.941406 97.5 -132.859375 C 104.40625 -130.773438 110.851562 -127.597656 116.84375 -123.328125 C 122.832031 -119.066406 127.910156 -113.679688 132.078125 -107.171875 C 136.242188 -100.660156 139.113281 -92.972656 140.6875 -84.109375 L 115.859375 -84.109375 C 114.109375 -90.953125 111.296875 -96.554688 107.421875 -100.921875 C 103.546875 -105.285156 98.90625 -108.507812 93.5 -110.59375 C 88.09375 -112.675781 82.226562 -113.71875 75.90625 -113.71875 C 69.65625 -113.71875 63.796875 -112.59375 58.328125 -110.34375 C 52.859375 -108.09375 48.050781 -104.882812 43.90625 -100.71875 C 39.769531 -96.550781 36.546875 -91.582031 34.234375 -85.8125 C 31.929688 -80.050781 30.78125 -73.625 30.78125 -66.53125 C 30.78125 -59.300781 31.929688 -52.800781 34.234375 -47.03125 C 36.546875 -41.269531 39.769531 -36.335938 43.90625 -32.234375 C 48.050781 -28.128906 52.859375 -24.984375 58.328125 -22.796875 C 63.796875 -20.617188 69.65625 -19.53125 75.90625 -19.53125 C 82.226562 -19.53125 88.070312 -20.570312 93.4375 -22.65625 C 98.8125 -24.75 103.453125 -27.972656 107.359375 -32.328125 C 111.273438 -36.691406 114.078125 -42.265625 115.765625 -49.046875 L 140.6875 -49.046875 C 139.113281 -40.179688 136.242188 -32.476562 132.078125 -25.9375 C 127.910156 -19.394531 122.863281 -14.003906 116.9375 -9.765625 C 111.007812 -5.535156 104.578125 -2.378906 97.640625 -0.296875 C 90.703125 1.785156 83.6875 2.828125 76.59375 2.828125 Z M 76.59375 2.828125 "/></g></g></g></g><g fill="#ffffff" fill-opacity="1"><g transform="translate(134.338911, 136.943253)"><g><path d="M 59.5 3.03125 C 51.875 3.03125 44.835938 1.664062 38.390625 -1.0625 C 31.941406 -3.800781 26.359375 -7.613281 21.640625 -12.5 C 16.921875 -17.382812 13.253906 -23.050781 10.640625 -29.5 C 8.035156 -35.945312 6.734375 -42.851562 6.734375 -50.21875 C 6.734375 -57.570312 8.035156 -64.457031 10.640625 -70.875 C 13.253906 -77.289062 16.921875 -82.941406 21.640625 -87.828125 C 26.359375 -92.710938 31.941406 -96.535156 38.390625 -99.296875 C 44.835938 -102.066406 51.90625 -103.453125 59.59375 -103.453125 C 67.34375 -103.453125 74.441406 -102.066406 80.890625 -99.296875 C 87.335938 -96.535156 92.9375 -92.710938 97.6875 -87.828125 C 102.445312 -82.941406 106.128906 -77.289062 108.734375 -70.875 C 111.335938 -64.457031 112.640625 -57.570312 112.640625 -50.21875 C 112.640625 -42.789062 111.335938 -35.867188 108.734375 -29.453125 C 106.128906 -23.035156 102.445312 -17.382812 97.6875 -12.5 C 92.9375 -7.613281 87.320312 -3.800781 80.84375 -1.0625 C 74.363281 1.664062 67.25 3.03125 59.5 3.03125 Z M 59.6875 -18.953125 C 65.351562 -18.953125 70.398438 -20.300781 74.828125 -23 C 79.265625 -25.707031 82.765625 -29.40625 85.328125 -34.09375 C 87.898438 -38.78125 89.1875 -44.15625 89.1875 -50.21875 C 89.1875 -56.269531 87.898438 -61.65625 85.328125 -66.375 C 82.765625 -71.101562 79.265625 -74.816406 74.828125 -77.515625 C 70.398438 -80.222656 65.351562 -81.578125 59.6875 -81.578125 C 54.09375 -81.578125 49.0625 -80.222656 44.59375 -77.515625 C 40.132812 -74.816406 36.617188 -71.101562 34.046875 -66.375 C 31.472656 -61.65625 30.1875 -56.269531 30.1875 -50.21875 C 30.1875 -44.15625 31.472656 -38.78125 34.046875 -34.09375 C 36.617188 -29.40625 40.132812 -25.707031 44.59375 -23 C 49.0625 -20.300781 54.09375 -18.953125 59.6875 -18.953125 Z M 59.6875 -18.953125 "/></g></g></g><g fill="#ffffff" fill-opacity="1"><g transform="translate(240.518082, 136.943253)"><g><path d="M 59 3.03125 C 52.289062 3.03125 46.070312 2.097656 40.34375 0.234375 C 34.613281 -1.617188 29.597656 -4.53125 25.296875 -8.5 C 21.003906 -12.46875 17.664062 -17.609375 15.28125 -23.921875 C 12.90625 -30.242188 11.71875 -37.867188 11.71875 -46.796875 L 11.71875 -100.4375 L 35.171875 -100.4375 L 35.171875 -47.484375 C 35.171875 -38.234375 37.15625 -31.164062 41.125 -26.28125 C 45.101562 -21.394531 51.03125 -18.953125 58.90625 -18.953125 C 66.851562 -18.953125 72.78125 -21.410156 76.6875 -26.328125 C 80.59375 -31.242188 82.546875 -38.296875 82.546875 -47.484375 L 82.546875 -100.4375 L 106.09375 -100.4375 L 106.09375 -46.796875 C 106.09375 -37.867188 104.90625 -30.242188 102.53125 -23.921875 C 100.15625 -17.609375 96.816406 -12.46875 92.515625 -8.5 C 88.210938 -4.53125 83.210938 -1.617188 77.515625 0.234375 C 71.816406 2.097656 65.644531 3.03125 59 3.03125 Z M 59 3.03125 "/></g></g></g><g fill="#ffffff" fill-opacity="1"><g transform="translate(345.134084, 136.943253)"><g><path d="M 37.515625 0 L 13.875 0 L 13.875 -100.4375 L 36.53125 -100.4375 L 36.53125 -82.265625 C 38.882812 -87.796875 42.335938 -92.207031 46.890625 -95.5 C 51.453125 -98.789062 56.988281 -100.4375 63.5 -100.4375 L 74.25 -100.4375 L 74.25 -80.109375 L 64.765625 -80.109375 C 59.359375 -80.109375 54.601562 -78.804688 50.5 -76.203125 C 46.40625 -73.597656 43.21875 -69.816406 40.9375 -64.859375 C 38.65625 -59.910156 37.515625 -53.859375 37.515625 -46.703125 Z M 37.515625 0 "/></g></g></g><g fill="#ffffff" fill-opacity="1"><g transform="translate(409.205355, 136.943253)"><g><path d="M 50.015625 3.03125 C 42.660156 3.03125 36.265625 2.050781 30.828125 0.09375 C 25.390625 -1.851562 20.894531 -4.488281 17.34375 -7.8125 C 13.789062 -11.132812 11.148438 -14.878906 9.421875 -19.046875 C 7.703125 -23.210938 6.84375 -27.515625 6.84375 -31.953125 L 29.5 -31.84375 C 29.695312 -27.289062 31.519531 -23.46875 34.96875 -20.375 C 38.425781 -17.28125 43.507812 -15.734375 50.21875 -15.734375 C 56.332031 -15.734375 60.835938 -16.90625 63.734375 -19.25 C 66.640625 -21.59375 68.09375 -24.648438 68.09375 -28.421875 C 68.09375 -31.296875 67.273438 -33.546875 65.640625 -35.171875 C 64.015625 -36.796875 61.625 -38.082031 58.46875 -39.03125 C 55.3125 -39.976562 51.453125 -40.773438 46.890625 -41.421875 C 42.066406 -42.078125 37.488281 -43.085938 33.15625 -44.453125 C 28.832031 -45.816406 25.007812 -47.703125 21.6875 -50.109375 C 18.363281 -52.523438 15.738281 -55.554688 13.8125 -59.203125 C 11.894531 -62.847656 10.9375 -67.273438 10.9375 -72.484375 C 10.9375 -78.671875 12.382812 -84.078125 15.28125 -88.703125 C 18.1875 -93.328125 22.453125 -96.941406 28.078125 -99.546875 C 33.710938 -102.148438 40.601562 -103.453125 48.75 -103.453125 C 56.820312 -103.453125 63.898438 -102.097656 69.984375 -99.390625 C 76.078125 -96.691406 80.816406 -92.914062 84.203125 -88.0625 C 87.597656 -83.21875 89.296875 -77.601562 89.296875 -71.21875 L 66.140625 -71.421875 C 65.878906 -75.128906 64.296875 -78.171875 61.390625 -80.546875 C 58.492188 -82.921875 54.3125 -84.109375 48.84375 -84.109375 C 43.769531 -84.109375 40.054688 -83.015625 37.703125 -80.828125 C 35.359375 -78.648438 34.1875 -76.035156 34.1875 -72.984375 C 34.1875 -70.503906 34.738281 -68.5 35.84375 -66.96875 C 36.957031 -65.4375 39.023438 -64.164062 42.046875 -63.15625 C 45.078125 -62.144531 49.460938 -61.1875 55.203125 -60.28125 C 60.410156 -59.5 65.257812 -58.457031 69.75 -57.15625 C 74.25 -55.851562 78.175781 -54.078125 81.53125 -51.828125 C 84.882812 -49.578125 87.503906 -46.675781 89.390625 -43.125 C 91.273438 -39.582031 92.21875 -35.140625 92.21875 -29.796875 C 92.21875 -22.429688 90.378906 -16.320312 86.703125 -11.46875 C 83.023438 -6.625 78.007812 -2.992188 71.65625 -0.578125 C 65.3125 1.828125 58.097656 3.03125 50.015625 3.03125 Z M 50.015625 3.03125 "/></g></g></g><g fill="#ffffff" fill-opacity="1"><g transform="translate(493.890935, 136.943253)"><g><path d="M 109.421875 -51.96875 C 109.421875 -50.738281 109.382812 -49.566406 109.3125 -48.453125 C 109.25 -47.347656 109.117188 -45.851562 108.921875 -43.96875 L 30.484375 -43.96875 C 31.328125 -38.488281 33.066406 -33.828125 35.703125 -29.984375 C 38.335938 -26.148438 41.609375 -23.207031 45.515625 -21.15625 C 49.429688 -19.101562 53.703125 -18.078125 58.328125 -18.078125 C 64.316406 -18.078125 69.164062 -19.265625 72.875 -21.640625 C 76.59375 -24.015625 79.296875 -27.320312 80.984375 -31.5625 L 106.78125 -31.5625 C 105.539062 -27.0625 103.503906 -22.726562 100.671875 -18.5625 C 97.835938 -14.394531 94.367188 -10.695312 90.265625 -7.46875 C 86.160156 -4.25 81.453125 -1.695312 76.140625 0.1875 C 70.835938 2.082031 65.0625 3.03125 58.8125 3.03125 C 51.257812 3.03125 44.304688 1.644531 37.953125 -1.125 C 31.597656 -3.894531 26.09375 -7.71875 21.4375 -12.59375 C 16.78125 -17.476562 13.164062 -23.144531 10.59375 -29.59375 C 8.019531 -36.039062 6.734375 -42.914062 6.734375 -50.21875 C 6.734375 -57.570312 8.019531 -64.457031 10.59375 -70.875 C 13.164062 -77.289062 16.78125 -82.941406 21.4375 -87.828125 C 26.09375 -92.710938 31.597656 -96.535156 37.953125 -99.296875 C 44.304688 -102.066406 51.257812 -103.453125 58.8125 -103.453125 C 66.363281 -103.453125 73.25 -102.082031 79.46875 -99.34375 C 85.6875 -96.613281 91.023438 -92.851562 95.484375 -88.0625 C 99.953125 -83.28125 103.390625 -77.796875 105.796875 -71.609375 C 108.210938 -65.421875 109.421875 -58.875 109.421875 -51.96875 Z M 31.453125 -62.234375 L 85.28125 -62.234375 C 84.957031 -66.003906 83.554688 -69.4375 81.078125 -72.53125 C 78.609375 -75.625 75.421875 -78.113281 71.515625 -80 C 67.609375 -81.894531 63.34375 -82.84375 58.71875 -82.84375 C 54.738281 -82.84375 50.925781 -82.109375 47.28125 -80.640625 C 43.632812 -79.179688 40.425781 -76.9375 37.65625 -73.90625 C 34.894531 -70.875 32.828125 -66.984375 31.453125 -62.234375 Z M 31.453125 -62.234375 "/></g></g></g></g></g><g fill="#000000" fill-opacity="1"><g transform="translate(550.065226, 885.109008)"><g><path d="M 30.109375 0 L 11.859375 0 L 11.859375 -99.609375 L 80.125 -99.609375 L 80.125 -83.28125 L 30.109375 -83.28125 L 30.109375 -54.5 L 73.3125 -54.5 L 73.3125 -39.109375 L 30.109375 -39.109375 Z M 30.109375 0 "/></g></g></g><g fill="#000000" fill-opacity="1"><g transform="translate(624.540222, 885.109008)"><g><path d="M 40.5 2.265625 C 35.425781 2.265625 30.726562 1.242188 26.40625 -0.796875 C 22.082031 -2.847656 18.320312 -5.707031 15.125 -9.375 C 11.925781 -13.039062 9.445312 -17.289062 7.6875 -22.125 C 5.925781 -26.957031 5.046875 -32.128906 5.046875 -37.640625 C 5.046875 -43.160156 5.9375 -48.328125 7.71875 -53.140625 C 9.507812 -57.953125 12.003906 -62.1875 15.203125 -65.84375 C 18.398438 -69.507812 22.144531 -72.378906 26.4375 -74.453125 C 30.738281 -76.523438 35.40625 -77.5625 40.4375 -77.5625 C 46.582031 -77.5625 52.046875 -76.226562 56.828125 -73.5625 C 61.617188 -70.90625 65.210938 -67.234375 67.609375 -62.546875 L 67.609375 -75.296875 L 84.453125 -75.296875 L 84.453125 0 L 67.609375 0 L 67.609375 -12.671875 C 65.160156 -7.984375 61.554688 -4.320312 56.796875 -1.6875 C 52.035156 0.945312 46.601562 2.265625 40.5 2.265625 Z M 44.75 -14.140625 C 47.820312 -14.140625 50.703125 -14.734375 53.390625 -15.921875 C 56.078125 -17.117188 58.429688 -18.78125 60.453125 -20.90625 C 62.484375 -23.03125 64.0625 -25.519531 65.1875 -28.375 C 66.3125 -31.238281 66.875 -34.328125 66.875 -37.640625 C 66.875 -40.910156 66.296875 -43.972656 65.140625 -46.828125 C 63.992188 -49.691406 62.421875 -52.195312 60.421875 -54.34375 C 58.421875 -56.488281 56.078125 -58.160156 53.390625 -59.359375 C 50.703125 -60.554688 47.820312 -61.15625 44.75 -61.15625 C 40.695312 -61.15625 37 -60.175781 33.65625 -58.21875 C 30.3125 -56.269531 27.632812 -53.535156 25.625 -50.015625 C 23.625 -46.503906 22.625 -42.378906 22.625 -37.640625 C 22.625 -32.765625 23.640625 -28.566406 25.671875 -25.046875 C 27.703125 -21.535156 30.398438 -18.835938 33.765625 -16.953125 C 37.128906 -15.078125 40.789062 -14.140625 44.75 -14.140625 Z M 44.75 -14.140625 "/></g></g></g><g fill="#000000" fill-opacity="1"><g transform="translate(709.48885, 885.109008)"><g><path d="M 43.953125 2.265625 C 38.328125 2.265625 33.144531 1.226562 28.40625 -0.84375 C 23.675781 -2.914062 19.566406 -5.78125 16.078125 -9.4375 C 12.585938 -13.101562 9.875 -17.351562 7.9375 -22.1875 C 6.007812 -27.019531 5.046875 -32.171875 5.046875 -37.640625 C 5.046875 -43.109375 6.007812 -48.25 7.9375 -53.0625 C 9.875 -57.875 12.585938 -62.125 16.078125 -65.8125 C 19.566406 -69.5 23.675781 -72.378906 28.40625 -74.453125 C 33.144531 -76.523438 38.328125 -77.5625 43.953125 -77.5625 C 50.441406 -77.5625 56.238281 -76.300781 61.34375 -73.78125 C 66.445312 -71.269531 70.71875 -67.84375 74.15625 -63.5 C 77.601562 -59.15625 80.035156 -54.222656 81.453125 -48.703125 L 63.359375 -48.703125 C 61.691406 -52.898438 59.125 -56.007812 55.65625 -58.03125 C 52.195312 -60.0625 48.316406 -61.078125 44.015625 -61.078125 C 41.285156 -61.078125 38.648438 -60.550781 36.109375 -59.5 C 33.566406 -58.457031 31.28125 -56.929688 29.25 -54.921875 C 27.226562 -52.921875 25.617188 -50.46875 24.421875 -47.5625 C 23.222656 -44.664062 22.625 -41.359375 22.625 -37.640625 C 22.625 -33.929688 23.222656 -30.625 24.421875 -27.71875 C 25.617188 -24.8125 27.226562 -22.34375 29.25 -20.3125 C 31.28125 -18.289062 33.578125 -16.753906 36.140625 -15.703125 C 38.703125 -14.660156 41.328125 -14.140625 44.015625 -14.140625 C 48.316406 -14.140625 52.195312 -15.203125 55.65625 -17.328125 C 59.125 -19.453125 61.691406 -22.859375 63.359375 -27.546875 L 81.375 -27.546875 C 80.101562 -21.734375 77.734375 -16.578125 74.265625 -12.078125 C 70.796875 -7.585938 66.484375 -4.070312 61.328125 -1.53125 C 56.179688 1 50.390625 2.265625 43.953125 2.265625 Z M 43.953125 2.265625 "/></g></g></g><g fill="#000000" fill-opacity="1"><g transform="translate(784.916006, 885.109008)"><g><path d="M 56.6875 0 L 41.375 0 C 39.132812 0 36.828125 -0.207031 34.453125 -0.625 C 32.085938 -1.039062 29.832031 -1.804688 27.6875 -2.921875 C 25.539062 -4.046875 23.625 -5.671875 21.9375 -7.796875 C 20.25 -9.921875 18.90625 -12.679688 17.90625 -16.078125 C 16.90625 -19.472656 16.40625 -23.660156 16.40625 -28.640625 L 16.40625 -60.0625 L 0.8125 -60.0625 L 0.8125 -75.296875 L 16.40625 -75.296875 L 16.40625 -97.34375 L 34.125 -97.484375 L 34.125 -75.296875 L 56.6875 -75.296875 L 56.6875 -60.0625 L 34.125 -60.0625 L 34.125 -27.828125 C 34.125 -24.316406 34.632812 -21.609375 35.65625 -19.703125 C 36.6875 -17.796875 38.046875 -16.488281 39.734375 -15.78125 C 41.421875 -15.070312 43.191406 -14.71875 45.046875 -14.71875 L 56.6875 -14.71875 Z M 56.6875 0 "/></g></g></g><g fill="#000000" fill-opacity="1"><g transform="translate(835.660524, 885.109008)"><g><path d="M 44.609375 2.265625 C 38.890625 2.265625 33.613281 1.242188 28.78125 -0.796875 C 23.945312 -2.847656 19.757812 -5.707031 16.21875 -9.375 C 12.675781 -13.039062 9.925781 -17.289062 7.96875 -22.125 C 6.019531 -26.957031 5.046875 -32.128906 5.046875 -37.640625 C 5.046875 -43.160156 6.019531 -48.328125 7.96875 -53.140625 C 9.925781 -57.953125 12.675781 -62.1875 16.21875 -65.84375 C 19.757812 -69.507812 23.945312 -72.378906 28.78125 -74.453125 C 33.613281 -76.523438 38.910156 -77.5625 44.671875 -77.5625 C 50.484375 -77.5625 55.804688 -76.523438 60.640625 -74.453125 C 65.472656 -72.378906 69.671875 -69.507812 73.234375 -65.84375 C 76.804688 -62.1875 79.566406 -57.953125 81.515625 -53.140625 C 83.472656 -48.328125 84.453125 -43.160156 84.453125 -37.640625 C 84.453125 -32.078125 83.472656 -26.890625 81.515625 -22.078125 C 79.566406 -17.273438 76.804688 -13.039062 73.234375 -9.375 C 69.671875 -5.707031 65.460938 -2.847656 60.609375 -0.796875 C 55.753906 1.242188 50.421875 2.265625 44.609375 2.265625 Z M 44.75 -14.203125 C 49 -14.203125 52.78125 -15.210938 56.09375 -17.234375 C 59.414062 -19.265625 62.039062 -22.035156 63.96875 -25.546875 C 65.90625 -29.066406 66.875 -33.097656 66.875 -37.640625 C 66.875 -42.179688 65.90625 -46.222656 63.96875 -49.765625 C 62.039062 -53.304688 59.414062 -56.085938 56.09375 -58.109375 C 52.78125 -60.140625 49 -61.15625 44.75 -61.15625 C 40.550781 -61.15625 36.78125 -60.140625 33.4375 -58.109375 C 30.09375 -56.085938 27.453125 -53.304688 25.515625 -49.765625 C 23.585938 -46.222656 22.625 -42.179688 22.625 -37.640625 C 22.625 -33.097656 23.585938 -29.066406 25.515625 -25.546875 C 27.453125 -22.035156 30.09375 -19.265625 33.4375 -17.234375 C 36.78125 -15.210938 40.550781 -14.203125 44.75 -14.203125 Z M 44.75 -14.203125 "/></g></g></g><g fill="#000000" fill-opacity="1"><g transform="translate(915.262461, 885.109008)"><g><path d="M 28.125 0 L 10.40625 0 L 10.40625 -75.296875 L 27.390625 -75.296875 L 27.390625 -61.671875 C 29.148438 -65.816406 31.738281 -69.125 35.15625 -71.59375 C 38.570312 -74.0625 42.722656 -75.296875 47.609375 -75.296875 L 55.671875 -75.296875 L 55.671875 -60.0625 L 48.5625 -60.0625 C 44.507812 -60.0625 40.941406 -59.082031 37.859375 -57.125 C 34.785156 -55.175781 32.394531 -52.34375 30.6875 -48.625 C 28.976562 -44.914062 28.125 -40.378906 28.125 -35.015625 Z M 28.125 0 "/></g></g></g><g fill="#000000" fill-opacity="1"><g transform="translate(963.297064, 885.109008)"><g><path d="M 16.265625 25.703125 L 3.59375 25.703125 L 3.59375 11.0625 L 16.109375 11.0625 C 18.742188 11.0625 20.90625 10.632812 22.59375 9.78125 C 24.28125 8.925781 25.707031 7.617188 26.875 5.859375 C 28.050781 4.097656 29.148438 1.828125 30.171875 -0.953125 L 31.0625 -3.515625 L 2.203125 -75.296875 L 20.875 -75.296875 L 38.59375 -29.734375 L 40.5 -21.96875 L 42.484375 -29.65625 L 59.90625 -75.21875 L 78.8125 -75.296875 L 49.4375 -1.6875 C 47.238281 3.925781 45.039062 8.523438 42.84375 12.109375 C 40.644531 15.703125 38.285156 18.488281 35.765625 20.46875 C 33.253906 22.445312 30.425781 23.8125 27.28125 24.5625 C 24.132812 25.320312 20.460938 25.703125 16.265625 25.703125 Z M 16.265625 25.703125 "/></g></g></g></svg>