<svg xmlns="http://www.w3.org/2000/svg" viewBox="0 0 280 80" fill="#FFFFFF" aria-label="AWS Cloud"><path d="M40 28c-3 0-5.5 1-7 2.5l1 3c1.5-1 3.5-2 6-2 3 0 4.5 1.5 4.5 4v1c-1-.3-2.5-.5-4-.5-5 0-8.5 2.5-8.5 6.5 0 3.5 2.5 6 6.5 6 3 0 5-1.3 6-3l.3 2.5h3.5V35.5c0-4.7-2.7-7.5-8.3-7.5zM44.5 41c0 .5 0 1-.3 1.5-.8 1.8-2.5 3.2-4.8 3.2-2 0-3.6-1-3.6-3 0-2.2 2-3.5 5-3.5 1.4 0 2.5 0 3.7.3z M60 28h-5l-7 23h4l1.8-6h7l1.8 6h4.2zm-5.4 14l2.4-8h.1l2.4 8zM77 35h-4l-3.8 16h4zm-2-7c-1.4 0-2.5 1-2.5 2.4S73.6 33 75 33s2.4-1 2.4-2.4S76.4 28 75 28zM92 35h-4l-3.8 16h4zM104 35h-5l-5 16h4l3.2-12 3.3 12h4z M138 28c-1 0-3 .3-5 1.5-1.5 1-3 3-3 5.5 0 4 2.5 5.5 5 6.5l2 1c1.5.7 2 1.3 2 2.5 0 1.4-1.5 2.5-3.5 2.5-1.5 0-3-.5-4-1.2l-.8 3c1 .7 3 1.5 5 1.5 4 0 7.5-2 7.5-6 0-3.5-2-5-5-6.2l-2-.8c-1-.5-1.7-1-1.7-2 0-1.2 1.2-2.3 3-2.3 1.5 0 2.7.5 3.5 1l1-3c-1-.5-2.6-1-4.5-1zM152 35c-2 0-3.5 1-4.5 2.5l-.2-2H144V51h4V41c0-.6 0-1.2.3-1.5.5-1.3 1.7-2.5 3.3-2.5 2 0 2.7 1.4 2.7 3.3V51h4V40c0-3.7-2-5-6.3-5z M170 35c-4.5 0-8 3-8 8.2 0 5 3.5 8 8 8 4.4 0 7.7-3 7.7-8.2 0-4.7-3.2-8-7.7-8zm-.1 13.5c-2.4 0-4-2-4-5.3 0-3 1.5-5.3 4-5.3 2.4 0 4 2.3 4 5.2 0 3.2-1.6 5.4-4 5.4z M198 35.5l-1.5-.5c-1.4-.4-2-1-2-2 0-1 1-1.7 2.5-1.7 1.5 0 3 .5 4 1l1-3c-1-.6-3-1-5-1-4 0-7 2-7 5.4 0 3 2 4.5 5 5.4l1.5.5c1.5.4 2 1 2 2 0 1-1 1.7-2.5 1.7-1.7 0-3.5-.6-5-1.4l-1 3c1.7 1 3.5 1.5 5.8 1.5 4 0 7-2 7-5.4 0-3-2-4.5-5-5.5z M210 33c-3 0-5 1-6.4 3l.2-2.4h-3.5V51h4V41c.5-1.7 2-3 4-3 .3 0 .8 0 1 .2l.7-5z M236 32h-4V28h-4v4h-3v3.4h3V46c0 3.5 2 5.4 5.7 5.4 1.7 0 3-.3 3.5-.5l-.2-3.2c-.4.2-1.2.3-2 .3-1.7 0-2.4-1.2-2.4-3v-9.3h4z M255 35.5h-5l-3.2 5.7-3.2-5.7h-5l5.5 7.7L238.7 51h5l3.4-6 3.5 6h5l-5.5-8z"/></svg>
