<svg xmlns="http://www.w3.org/2000/svg" viewBox="0 0 256 116" aria-label="Cloudflare"><path fill="#F38020" d="M202.34 81.16 207.05 64.46c2.18-7.55 1.36-14.55-2.32-19.7-3.39-4.74-9-7.55-15.84-7.87L57.45 35.07a2.54 2.54 0 0 1-2.03-1.07 2.59 2.59 0 0 1-.3-2.28 3.42 3.42 0 0 1 3-2.28l132.76-1.62c15.75-.72 32.81 11.99 38.78 28.97l3.44 9.31a25.34 25.34 0 0 1 1.21 1.31l-32.04 13.45-.93 1.13z"/><path fill="#FAAE40" d="m217.07 76.21-.91-3.3c-.61-2.02-2.83-3.5-4.84-3.5h-91.13c-1.13 0-2.06.5-2.66 1.13a3.83 3.83 0 0 0-.91 2.45 3 3 0 0 0 3 3l92.13-.01a2.46 2.46 0 0 1 2.42 2.16l.91 4.5z"/><path fill="#FFFFFF" d="M134.5 89.5c-.6.91-1.42 1.51-2.32 1.51h-30.85c-.6 0-1.13-.5-.91-1.31l8.91-29.97a3.42 3.42 0 0 1 3-2.28h31.45c.6 0 1.13.5.91 1.31l-8.91 29.97c-.21.4-.4.71-.79.91z"/></svg>
