<svg xmlns="http://www.w3.org/2000/svg" viewBox="0 0 240 160" fill="#FFFFFF" aria-label="Docker"><rect x="30" y="80" width="22" height="20" rx="2"/><rect x="56" y="80" width="22" height="20" rx="2"/><rect x="82" y="80" width="22" height="20" rx="2"/><rect x="108" y="80" width="22" height="20" rx="2"/><rect x="56" y="56" width="22" height="20" rx="2"/><rect x="82" y="56" width="22" height="20" rx="2"/><rect x="108" y="56" width="22" height="20" rx="2"/><rect x="82" y="32" width="22" height="20" rx="2"/><path d="M134 90 Q150 84 168 90 Q186 84 200 95 Q210 105 196 118 Q180 128 150 124 Q120 120 110 110 Q108 102 134 90 Z" fill="#FFFFFF"/><path d="M180 70 Q188 70 188 80 Q188 86 184 88" stroke="#FFFFFF" stroke-width="3" fill="none" stroke-linecap="round"/></svg>
