<svg xmlns="http://www.w3.org/2000/svg" viewBox="0 0 64 64" fill="none">
  <defs>
    <linearGradient id="gh-bg" x1="0" y1="0" x2="64" y2="64" gradientUnits="userSpaceOnUse">
      <stop offset="0" stop-color="#0D1117"/>
      <stop offset="1" stop-color="#181717"/>
    </linearGradient>
  </defs>
  <rect width="64" height="64" rx="14" fill="url(#gh-bg)"/>
  <path d="M32 14c-9.94 0-18 8.06-18 18 0 7.95 5.16 14.69 12.31 17.07.9.16 1.23-.39 1.23-.86 0-.43-.02-1.85-.02-3.36-5.01 1.09-6.07-2.13-6.07-2.13-.82-2.08-2-2.63-2-2.63-1.64-1.12.12-1.1.12-1.1 1.81.13 2.76 1.85 2.76 1.85 1.61 2.75 4.22 1.96 5.25 1.5.16-1.17.63-1.96 1.14-2.41-3.99-.45-8.19-2-8.19-8.89 0-1.96.7-3.57 1.84-4.83-.18-.45-.8-2.27.18-4.74 0 0 1.51-.48 4.94 1.84 1.43-.4 2.96-.6 4.5-.6 1.53.01 3.08.2 4.5.6 3.43-2.32 4.94-1.84 4.94-1.84.98 2.47.36 4.29.18 4.74 1.15 1.26 1.84 2.87 1.84 4.83 0 6.91-4.21 8.44-8.22 8.88.64.55 1.22 1.65 1.22 3.32 0 2.4-.02 4.34-.02 4.93 0 .48.32 1.04 1.24.86C44.85 46.69 50 39.95 50 32c0-9.94-8.06-18-18-18z" fill="#fff"/>
</svg>
