<svg xmlns="http://www.w3.org/2000/svg" viewBox="0 0 280 40" fill="#FFFFFF" aria-label="NVIDIA CUDA"><path d="M0 5h6.5l13 21.5h.2V5H26v30h-6.5L6.5 13.5h-.2V35H0zM33 5h6.7l8.4 22.5h.2L57 5h6.4L52.6 35h-9.1zM69 5h6V35H69zM82 5h12.3c9.4 0 14.7 5.6 14.7 15s-5.3 15-14.7 15H82zm6 25h5.8c5.8 0 9.1-3.6 9.1-10s-3.3-10-9.1-10H88zM116 5h6V35h-6zM131 5h7l13 30h-6.4l-2.7-6.6h-14.7l-2.6 6.6H119zm.8 18.4h10.6L137 10.7z"/><path d="M175 20.6c0-9.2 6.6-15.6 16-15.6 7.3 0 12.4 3.5 14.7 9.6l-5.8 2.2c-1.4-4-4.4-6.4-8.9-6.4-6 0-9.7 4.2-9.7 10.2 0 6.1 3.6 10.3 9.6 10.3 4.4 0 7.4-2 8.9-5.7v-2.3h-9V18h15v17h-5.4v-4.4c-2.4 3.2-6 4.9-10.3 4.9-9 0-15.1-6.4-15.1-14.9zM214 5h7l13 30h-6.4l-2.7-6.6h-14.7l-2.6 6.6h-6.5zm.8 18.4h10.6L220 10.7zM240 5h12.3c9.4 0 14.7 5.6 14.7 15s-5.3 15-14.7 15H240zm6 25h5.8c5.8 0 9.1-3.6 9.1-10s-3.3-10-9.1-10H246z"/></svg>
