<svg xmlns="http://www.w3.org/2000/svg" viewBox="0 0 320 320" fill="#FFFFFF" aria-label="OpenAI"><path d="M297.06 130.97a80.06 80.06 0 0 0-6.88-65.71 80.93 80.93 0 0 0-87.13-38.79A80.07 80.07 0 0 0 141.4 0a80.93 80.93 0 0 0-77.17 55.7 80.08 80.08 0 0 0-53.5 38.81 80.93 80.93 0 0 0 9.94 94.93 80.08 80.08 0 0 0 6.88 65.71 80.93 80.93 0 0 0 87.13 38.79 80.07 80.07 0 0 0 61.65 27.47 80.93 80.93 0 0 0 77.17-55.74 80.08 80.08 0 0 0 53.5-38.81 80.93 80.93 0 0 0-9.94-94.91zM176.51 299.5a59.99 59.99 0 0 1-38.49-13.92c.49-.27 1.34-.74 1.89-1.07l63.72-36.8a10.34 10.34 0 0 0 5.24-9.07v-89.83l26.94 15.56a.96.96 0 0 1 .52.74v74.39c-.04 33.08-26.83 59.93-59.83 60zM47.91 244.59a59.91 59.91 0 0 1-7.18-40.31c.47.28 1.3.79 1.89 1.13l63.72 36.8a10.36 10.36 0 0 0 10.47 0l77.79-44.92v31.12a.96.96 0 0 1-.38.83l-64.41 37.19c-28.69 16.52-65.32 6.7-81.9-21.83zM31.13 105.43a59.85 59.85 0 0 1 31.31-26.35v75.74c0 4.31 2 8.36 5.24 11.07l77.79 44.91-26.94 15.56a.96.96 0 0 1-.9.08L53.21 189.2c-28.61-16.55-38.41-53.18-21.88-81.76zm221.26 51.49l-77.79-44.92 26.94-15.55a.96.96 0 0 1 .9-.08l64.41 37.18a59.95 59.95 0 0 1-9.43 108.13v-75.74a10.34 10.34 0 0 0-5.03-11.02zm26.81-40.34c-.47-.29-1.3-.79-1.89-1.13l-63.72-36.8a10.36 10.36 0 0 0-10.47 0l-77.79 44.92V92.45a.96.96 0 0 1 .38-.83l64.41-37.16c28.69-16.55 65.34-6.7 81.88 21.87a59.95 59.95 0 0 1 7.2 40.25zM107.87 169.5l-26.95-15.56a.96.96 0 0 1-.52-.74V78.81a59.95 59.95 0 0 1 98.31-46.04c-.49.27-1.33.74-1.89 1.07l-63.72 36.8a10.34 10.34 0 0 0-5.24 9.06l-.04 89.79zm14.63-31.55l34.65-20.01 34.65 20v40l-34.65 20-34.65-20z"/></svg>
