<svg xmlns="http://www.w3.org/2000/svg" viewBox="0 0 360 50" fill="#FFFFFF" aria-label="SpaceX"><path d="M22.5 14.2c-3.4-2.5-7.5-3.8-12.4-3.8C4.2 10.4 0 13 0 17.6c0 4.4 3.4 6 9.3 7.4l3.6.8c4 .9 5.3 1.5 5.3 3 0 1.7-2 2.8-5.4 2.8-4.1 0-7.8-1.5-10.7-3.5L0 32.6c3.4 2.6 7.9 4.1 12.7 4.1 6.5 0 11.1-2.6 11.1-7.4 0-4.1-2.9-6-9-7.4l-3.7-.8c-3.9-.8-5.5-1.7-5.5-3.1 0-1.6 1.9-2.6 5-2.6 3.6 0 6.9 1.2 9.8 3.1zM28.5 11.1h11.4c6.5 0 10.2 3 10.2 8.2 0 5.3-3.7 8.4-10.2 8.4h-6.4V36h-5zm10.8 11.9c3.8 0 5.7-1.3 5.7-3.7 0-2.4-1.9-3.6-5.7-3.6h-5.8V23zM58.5 11.1h7.1L75 36h-5.3l-2-5.8H58.4L56.5 36h-5.2zm.9 14.7h9.3L64 13.7zM89 36.5c-7.7 0-13-5.2-13-13s5.3-13 13-13c4.4 0 7.9 1.4 10.3 4l-3.4 3.4c-1.8-1.7-4.1-2.7-6.8-2.7-5 0-8.2 3.5-8.2 8.3 0 4.8 3.2 8.3 8.2 8.3 2.8 0 5.2-1 7-2.9l3.4 3.4c-2.4 2.7-6 4.2-10.5 4.2zM103.5 11.1h17.7v4.5h-12.7v5.3h11.8v4.4h-11.8V31.5h13.1V36h-18.1zM157 12l-9.6 11.4 10 12.6h-6.4l-6.9-9-6.9 9h-6.3l10-12.5L132 12h6.4l6.6 8.4 6.6-8.4z"/></svg>
