<svg xmlns="http://www.w3.org/2000/svg" viewBox="0 0 64 64" fill="none">
  <defs>
    <linearGradient id="tw-bg" x1="0" y1="0" x2="64" y2="64" gradientUnits="userSpaceOnUse">
      <stop offset="0" stop-color="#0F172A"/>
      <stop offset="0.6" stop-color="#0369A1"/>
      <stop offset="1" stop-color="#38BDF8"/>
    </linearGradient>
  </defs>
  <rect width="64" height="64" rx="14" fill="url(#tw-bg)"/>
  <path d="M22 24c2.5-6 7-9 13.5-9 6.5 0 9.7 3.2 13 7.5-2.5-1.7-5.4-2.6-9-1.6-2.1.6-3.6 2-5.3 3.5-2.7 2.4-5.7 5.1-12.2 5.1 2.7 6 7.2 9 13.7 9 6.5 0 9.7-3.2 13-7.5-2.5 1.7-5.4 2.6-9 1.6-2.1-.6-3.6-2-5.3-3.5-2.7-2.4-5.7-5.1-12.4-5.1z" fill="#38BDF8"/>
</svg>
